<?xml version="1.0" encoding="utf-8"?>
<!-- Generator: Adobe Illustrator 15.0.2, SVG Export Plug-In . SVG Version: 6.00 Build 0)  -->
<!DOCTYPE svg PUBLIC "-//W3C//DTD SVG 1.1//EN" "http://www.w3.org/Graphics/SVG/1.1/DTD/svg11.dtd">
<svg version="1.1" id="Layer_1" xmlns="http://www.w3.org/2000/svg" xmlns:xlink="http://www.w3.org/1999/xlink" x="0px" y="0px"
	 width="128px" height="128px" viewBox="0 0 128 128" enable-background="new 0 0 128 128" xml:space="preserve">
<g>
	<g>
		<path d="M106.645,45.146c1.504,3.658,2.256,7.708,2.256,12.151c-0.273,16.544-5.229,27.686-14.867,33.428
			s-22.219,8.407-37.735,7.998c-15.519,0.409-28.062-2.256-37.632-7.998C9.095,84.982,4.173,73.841,3.9,57.296
			c0-4.443,0.752-8.493,2.256-12.151c1.503-3.656,3.589-6.921,6.255-9.792c-0.615-1.093-1.128-3.571-1.538-7.434
			c-0.41-3.861,0.41-8.629,2.461-14.304c-0.068-0.341,1.726-0.272,5.384,0.205c3.656,0.479,9.382,3.248,17.175,8.306
			c3.281-0.888,6.647-1.469,10.101-1.743c3.451-0.272,6.921-0.41,10.407-0.41s6.955,0.138,10.408,0.41
			c3.451,0.274,6.818,0.855,10.1,1.743c7.793-5.058,13.518-7.827,17.176-8.306c3.656-0.478,5.451-0.546,5.383-0.205
			c2.051,5.675,2.871,10.443,2.461,14.304c-0.41,3.863-0.922,6.341-1.537,7.434C103.057,38.224,105.141,41.489,106.645,45.146z
			 M84.189,89.136c7.383-2.495,11.209-8.801,11.484-18.919c0-2.528-0.582-4.938-1.744-7.23c-1.162-2.289-2.838-4.391-5.023-6.306
			c-3.557-2.938-8.152-4.255-13.793-3.948c-5.639,0.308-11.877,0.599-18.713,0.872c-6.836-0.272-13.073-0.564-18.713-0.872
			s-10.238,1.009-13.792,3.948c-2.188,1.915-3.862,4.017-5.024,6.306c-1.163,2.292-1.743,4.702-1.743,7.23
			c0.272,10.118,4.102,16.424,11.484,18.919c7.383,2.496,16.646,3.537,27.788,3.127C67.543,92.673,76.807,91.632,84.189,89.136z
			 M45.48,62.833c1.469,2.189,2.204,4.94,2.204,8.255c0,3.316-0.735,6.084-2.204,8.305c-1.471,2.223-3.333,3.368-5.589,3.436
			c-2.256-0.067-4.119-1.213-5.588-3.436c-1.471-2.221-2.205-4.988-2.205-8.305c0-3.315,0.734-6.066,2.205-8.255
			c1.469-2.187,3.332-3.349,5.588-3.486C42.147,59.485,44.01,60.647,45.48,62.833z M78.498,62.833
			c1.469,2.189,2.205,4.94,2.205,8.255c0,3.316-0.754,6.084-2.256,8.305c-1.506,2.223-3.352,3.368-5.537,3.436
			c-2.256-0.067-4.119-1.213-5.59-3.436c-1.471-2.221-2.203-4.988-2.203-8.305c0-3.315,0.732-6.066,2.203-8.255
			c1.471-2.187,3.334-3.349,5.59-3.486C75.166,59.485,77.027,60.647,78.498,62.833z"/>
	</g>
	<rect x="94.136" y="83.671" fill="#FFFFFF" width="11.111" height="28.229"/>
	<g>
		<path fill="#FFF45F" stroke="#000000" stroke-miterlimit="10" d="M124.1,111.599c0,0.531-0.133,1.031-0.398,1.5
			s-0.625,0.836-1.078,1.102s-0.961,0.398-1.523,0.398H80.037c-0.562,0-1.071-0.133-1.523-0.398
			c-0.453-0.266-0.813-0.633-1.078-1.102c-0.266-0.469-0.398-0.969-0.398-1.5s0.124-1.031,0.375-1.5l20.531-35.953
			c0.281-0.469,0.656-0.836,1.125-1.102s0.968-0.398,1.5-0.398c0.531,0,1.031,0.133,1.5,0.398s0.844,0.633,1.125,1.102
			l20.531,35.953C123.975,110.567,124.1,111.067,124.1,111.599z M103.568,87.599h-6v12h6V87.599z M103.568,102.599h-6v6h6V102.599z"
			/>
	</g>
</g>
</svg>
